<?xml version="1.0" standalone="no"?>
<!DOCTYPE svg PUBLIC "-//W3C//DTD SVG 20010904//EN"
 "http://www.w3.org/TR/2001/REC-SVG-20010904/DTD/svg10.dtd">
<svg version="1.0" xmlns="http://www.w3.org/2000/svg"
 width="512.000000pt" height="512.000000pt" viewBox="0 0 512.000000 512.000000"
 preserveAspectRatio="xMidYMid meet">
<metadata>
Created by potrace 1.16, written by Peter Selinger 2001-2019
</metadata>
<g transform="translate(0.000000,512.000000) scale(0.100000,-0.100000)"
fill="#fff" stroke="none">
<path d="M2068 4913 l-3 -156 -349 -158 c-193 -87 -386 -171 -430 -185 -232
-77 -464 -252 -545 -411 -73 -146 -111 -330 -111 -544 0 -109 -13 -201 -104
-769 -62 -382 -113 -669 -126 -703 -34 -95 -68 -249 -86 -390 -22 -174 -15
-576 15 -857 23 -213 78 -640 88 -678 5 -23 9 -24 57 -17 28 3 52 7 53 9 1 1
-4 46 -13 100 -27 179 -73 579 -90 771 -12 137 -15 255 -11 420 4 221 8 260
43 422 l15 73 32 -17 c53 -27 182 -16 231 20 18 13 18 15 -8 59 l-26 45 -55
-19 c-80 -27 -115 -9 -115 61 0 15 47 321 105 680 88 548 105 670 105 764 0
203 35 389 97 510 35 70 141 178 238 242 102 67 145 88 242 120 43 14 251 103
462 198 306 137 385 177 392 195 5 13 9 102 9 198 l0 174 -55 0 -54 0 -3 -157z"/>
<path d="M2950 4880 c0 -186 0 -190 23 -204 44 -30 715 -329 811 -363 55 -19
123 -46 150 -60 140 -70 300 -212 348 -308 62 -122 98 -305 98 -502 0 -106 13
-204 105 -774 58 -359 105 -665 105 -680 0 -70 -35 -88 -115 -61 l-55 19 -26
-45 c-26 -44 -26 -46 -8 -59 49 -36 178 -47 231 -20 l31 17 15 -68 c38 -170
42 -218 42 -502 0 -167 -5 -337 -13 -410 -20 -191 -70 -596 -86 -706 -9 -54
-14 -99 -13 -100 1 -2 25 -6 53 -9 62 -9 54 -30 88 228 94 693 112 1112 60
1417 -19 110 -57 265 -80 318 -8 20 -62 329 -120 686 -93 579 -104 663 -104
776 0 303 -71 521 -218 672 -121 125 -267 216 -438 272 -45 15 -238 98 -430
185 l-349 158 -3 156 -3 157 -49 0 -50 0 0 -190z"/>
<path d="M2020 4398 c0 -14 -3 -40 -6 -57 -6 -30 -5 -31 29 -31 91 0 264 -49
337 -95 46 -30 96 -83 112 -120 10 -24 14 -180 16 -730 3 -629 1 -707 -14
-770 -60 -248 -206 -513 -389 -704 l-92 -96 31 -42 c17 -23 34 -42 37 -43 20
-1 217 223 282 322 72 107 167 292 182 351 9 34 21 34 30 0 15 -59 110 -244
182 -351 65 -99 262 -323 282 -322 3 1 20 20 37 43 l31 42 -92 96 c-183 191
-329 456 -389 704 -15 63 -17 141 -14 770 2 550 6 706 16 730 16 37 66 90 112
120 72 46 246 95 336 95 37 0 41 12 27 80 l-6 33 -70 -7 c-166 -15 -337 -81
-421 -161 l-46 -45 -47 46 c-84 80 -253 145 -421 160 l-72 7 0 -25z"/>
<path d="M2183 3572 c-8 -5 -17 -50 -23 -110 -32 -306 -165 -522 -390 -631
-41 -20 -77 -37 -79 -38 -9 -5 23 -95 35 -100 20 -7 151 60 225 116 191 145
296 371 324 694 l7 77 -44 0 c-23 0 -49 -4 -55 -8z"/>
<path d="M2840 3554 c0 -143 44 -334 104 -459 57 -119 123 -205 213 -276 65
-52 205 -129 233 -129 10 0 24 29 36 75 5 22 0 27 -51 50 -78 34 -174 104
-230 167 -54 62 -136 226 -159 318 -9 36 -21 110 -27 165 -6 55 -12 101 -14
103 -1 1 -25 5 -54 9 l-51 6 0 -29z"/>
<path d="M1000 3035 l-34 -35 49 -53 c28 -28 87 -91 133 -138 l83 -86 -96
-454 -97 -454 -9 -210 c-17 -428 -67 -895 -145 -1345 -14 -80 -28 -159 -31
-176 -5 -32 -5 -32 47 -39 28 -4 53 -5 56 -3 9 10 85 488 113 718 40 318 60
559 67 800 6 193 7 198 81 560 66 322 93 427 93 367 0 -25 119 -351 174 -475
l45 -104 12 -616 12 -617 -36 -96 c-20 -53 -50 -145 -67 -204 -28 -102 -74
-315 -68 -320 2 -2 26 -6 55 -10 l52 -7 6 39 c13 74 56 249 76 313 60 189 82
234 195 405 63 95 114 177 114 181 0 5 -20 21 -45 36 l-43 26 -63 -94 c-34
-52 -63 -93 -65 -91 -2 2 -8 248 -14 548 l-11 544 -34 75 c-78 174 -157 391
-221 603 l-44 148 -142 150 c-79 82 -148 149 -153 149 -6 0 -26 -16 -45 -35z"/>
<path d="M3922 2920 l-144 -150 -39 -133 c-66 -222 -148 -447 -225 -618 l-34
-76 -11 -544 c-6 -299 -12 -545 -13 -547 -2 -1 -31 41 -66 93 -60 90 -64 95
-84 82 -12 -8 -31 -20 -43 -28 -13 -8 -23 -18 -23 -23 0 -5 51 -86 114 -181
138 -211 190 -340 251 -634 13 -62 26 -115 28 -118 3 -2 27 -1 55 3 50 6 51 7
46 38 -25 153 -77 347 -131 494 l-36 97 11 615 11 615 46 105 c44 99 168 432
177 475 8 32 12 15 92 -371 69 -325 76 -372 76 -473 0 -214 41 -689 91 -1041
23 -168 88 -552 94 -558 5 -5 105 8 105 14 0 3 -16 96 -35 207 -81 475 -124
865 -145 1327 l-10 225 -96 454 -96 453 78 82 c44 44 104 107 134 138 l54 58
-34 35 c-19 19 -39 35 -45 35 -5 0 -75 -68 -153 -150z"/>
<path d="M2121 1015 c-19 -14 -39 -26 -45 -28 -6 -2 13 -39 40 -83 28 -43 72
-112 97 -151 l47 -73 45 28 c24 15 44 32 42 37 -3 16 -181 295 -187 294 -3 0
-21 -11 -39 -24z"/>
<path d="M2867 899 c-48 -77 -90 -146 -92 -152 -4 -10 84 -73 89 -65 31 46
178 282 181 290 4 10 -49 50 -85 65 -3 1 -45 -61 -93 -138z"/>
</g>
</svg>
