<?xml version="1.0" standalone="no"?>
<!DOCTYPE svg PUBLIC "-//W3C//DTD SVG 20010904//EN"
 "http://www.w3.org/TR/2001/REC-SVG-20010904/DTD/svg10.dtd">
<svg version="1.0" xmlns="http://www.w3.org/2000/svg"
 width="512.000000pt" height="512.000000pt" viewBox="0 0 512.000000 512.000000"
 preserveAspectRatio="xMidYMid meet">

<g transform="translate(0.000000,512.000000) scale(0.100000,-0.100000)"
fill="#fff" stroke="none">
<path d="M2069 4918 l0 -163 -312 -200 -312 -200 -105 -8 c-220 -16 -370 -79
-501 -210 -133 -133 -212 -405 -208 -718 0 -74 -21 -226 -100 -719 l-101 -625
-64 -127 c-72 -144 -145 -354 -175 -503 -43 -210 -196 -1364 -183 -1376 4 -4
26 -9 49 -11 41 -3 42 -3 47 32 3 19 26 197 51 395 58 458 110 823 135 945 32
154 86 305 165 465 l74 150 81 515 c45 283 83 522 86 530 3 9 15 -4 34 -36 44
-79 54 -83 94 -44 l34 32 -39 61 c-76 117 -101 272 -79 491 15 153 40 251 90
352 49 100 127 177 232 228 137 67 146 68 608 66 228 0 435 -5 458 -11 62 -14
118 -44 172 -95 l46 -43 37 26 c20 14 37 29 37 33 0 16 -119 118 -163 139 -94
45 -137 51 -401 51 l-249 0 259 166 c142 92 269 176 282 187 21 20 22 26 22
204 l0 183 -50 0 -50 0 -1 -162z"/>
<path d="M2950 4896 l0 -184 29 -24 c15 -12 141 -95 278 -183 l250 -160 -266
-5 c-332 -7 -366 -17 -493 -139 -27 -25 -48 -48 -48 -52 0 -3 17 -18 39 -32
l38 -26 39 41 c42 43 107 80 169 96 24 7 207 12 460 13 364 1 428 -1 480 -15
322 -89 458 -319 457 -771 0 -185 -15 -250 -81 -352 l-39 -61 35 -33 35 -34
24 30 c14 17 33 46 44 65 13 24 20 30 23 20 3 -8 42 -247 87 -530 l82 -515 73
-150 c153 -312 182 -453 320 -1565 14 -113 28 -221 31 -240 l5 -36 47 6 c45 5
47 6 45 35 -10 118 -128 1004 -163 1225 -39 240 -103 440 -206 640 l-55 109
-100 618 c-89 550 -101 636 -105 778 -11 403 -103 622 -320 765 -110 72 -285
120 -440 120 -37 0 -76 22 -358 203 l-316 202 0 163 0 162 -50 0 -50 0 0 -184z"/>
<path d="M2510 3246 l0 -334 -64 -41 c-132 -86 -131 -86 -481 -86 -410 0 -405
-2 -620 194 l-110 101 -35 -36 -35 -35 52 -49 c29 -27 53 -55 53 -62 0 -7 -48
-236 -105 -508 -58 -272 -119 -574 -136 -670 -39 -230 -78 -387 -149 -600
-112 -338 -264 -656 -446 -938 -30 -45 -54 -86 -54 -91 0 -5 17 -20 38 -33
l38 -25 34 51 c308 463 549 1062 629 1564 21 127 204 1013 208 1008 2 -1 25
-90 52 -197 27 -107 74 -273 104 -369 l55 -175 11 -613 11 -612 -40 -79 c-76
-150 -130 -356 -130 -492 l0 -59 50 0 50 0 0 54 c0 117 53 323 114 443 l21 43
219 -125 c121 -69 225 -124 231 -122 12 5 51 74 45 80 -3 2 -107 62 -231 132
l-226 129 -7 176 c-3 96 -9 375 -12 620 l-6 445 -45 135 c-72 220 -193 693
-181 705 2 3 34 -11 71 -31 105 -56 165 -64 477 -64 344 0 402 12 547 111 51
35 56 35 96 5 53 -40 149 -84 218 -101 49 -11 128 -15 339 -15 312 0 372 8
477 64 37 20 69 34 71 31 13 -12 -102 -461 -182 -711 l-44 -139 -6 -490 c-4
-269 -9 -545 -13 -613 l-6 -122 -231 -132 c-127 -72 -232 -132 -234 -133 -4
-3 43 -85 49 -85 4 0 105 56 225 125 121 69 222 125 225 125 14 0 83 -170 106
-259 13 -53 27 -138 30 -189 l6 -92 48 0 49 0 0 59 c0 134 -56 350 -129 494
l-39 78 10 612 10 612 55 175 c30 96 77 263 104 370 28 107 51 196 53 197 4 5
185 -875 205 -1003 78 -484 296 -1042 584 -1496 l80 -126 39 25 c21 14 38 29
38 33 0 4 -40 72 -88 151 -156 254 -266 477 -367 749 -82 221 -158 506 -190
710 -8 58 -68 353 -132 657 l-116 551 53 49 54 49 -35 37 -34 37 -120 -110
c-127 -117 -198 -161 -290 -180 -36 -7 -154 -10 -342 -8 -325 4 -339 7 -463
89 l-60 41 0 334 0 334 -50 0 -50 0 0 -334z"/>
<path d="M1552 3005 l-21 -44 86 -41 c47 -22 87 -39 88 -38 10 12 35 70 35 80
0 10 -63 44 -160 86 -3 1 -16 -18 -28 -43z"/>
<path d="M3458 3012 c-43 -21 -78 -43 -78 -50 0 -10 25 -68 35 -80 1 -1 41 16
88 38 l86 41 -21 44 c-12 25 -24 45 -27 44 -4 0 -41 -17 -83 -37z"/>
<path d="M1943 2567 l-42 -22 81 -180 80 -180 -21 -86 c-40 -163 -37 -304 7
-432 18 -51 18 -54 -1 -122 -15 -54 -20 -104 -21 -220 -1 -135 2 -156 22 -207
13 -32 26 -58 29 -58 3 0 23 10 44 22 28 16 38 26 33 38 -41 94 -43 285 -4
420 l21 74 -25 76 c-46 139 -44 284 6 427 l21 61 -88 199 c-48 109 -90 201
-94 205 -3 3 -25 -3 -48 -15z"/>
<path d="M3037 2385 c-48 -108 -87 -201 -87 -209 0 -7 9 -38 20 -70 46 -136
46 -290 -1 -426 l-21 -61 23 -82 c14 -53 24 -121 27 -192 3 -94 1 -119 -18
-174 -17 -52 -19 -66 -8 -73 20 -13 66 -38 72 -38 2 0 15 26 28 57 20 51 22
75 22 203 0 115 -5 161 -21 219 -20 73 -20 74 -1 135 43 139 43 303 -1 444
l-18 59 82 184 82 184 -31 17 c-17 9 -38 17 -47 18 -11 0 -41 -58 -102 -195z"/>
<path d="M2510 2395 l0 -175 -130 0 -130 0 0 -50 0 -50 130 0 130 0 0 -225 0
-225 -130 0 -130 0 0 -50 0 -50 130 0 130 0 0 -245 0 -245 50 0 50 0 0 245 0
245 125 0 125 0 0 50 0 50 -125 0 -125 0 0 225 0 225 125 0 125 0 0 50 0 50
-125 0 -125 0 0 175 0 175 -50 0 -50 0 0 -175z"/>
</g>
</svg>
