<?xml version="1.0" standalone="no"?>
<!DOCTYPE svg PUBLIC "-//W3C//DTD SVG 20010904//EN"
 "http://www.w3.org/TR/2001/REC-SVG-20010904/DTD/svg10.dtd">
<svg version="1.0" xmlns="http://www.w3.org/2000/svg"
 width="512.000000pt" height="512.000000pt" viewBox="0 0 512.000000 512.000000"
 preserveAspectRatio="xMidYMid meet">
<metadata>
Created by potrace 1.16, written by Peter Selinger 2001-2019
</metadata>
<g transform="translate(0.000000,512.000000) scale(0.100000,-0.100000)"
fill="#fff" stroke="none">
<path d="M1542 5094 c-135 -67 -223 -254 -267 -566 -20 -141 -38 -485 -31
-598 l5 -85 -24 115 c-56 272 -99 609 -117 908 l-12 202 -53 0 -53 0 0 -57 c1
-391 108 -1087 260 -1696 l60 -238 0 -205 0 -204 -55 -162 c-70 -212 -94 -330
-102 -504 -8 -196 6 -290 123 -800 81 -354 100 -474 84 -528 -30 -100 -251
-266 -480 -361 -36 -15 -68 -32 -72 -39 -13 -19 -9 -251 4 -264 9 -9 137 -12
517 -12 563 0 548 -1 619 70 54 54 76 106 76 185 1 68 -2 76 -79 235 -115 238
-115 221 15 655 128 424 160 559 180 754 20 205 -20 492 -95 664 l-35 83 0
241 0 240 31 74 c16 41 63 162 103 269 232 614 377 1164 393 1483 l6 117 -55
0 -55 0 -6 -112 c-14 -245 -100 -607 -255 -1073 l-67 -200 -2 65 c-13 353 -50
598 -105 687 -14 24 -26 83 -44 221 -27 214 -50 299 -97 368 -47 68 -100 94
-192 94 -56 0 -82 -5 -123 -26z m181 -95 c63 -29 93 -122 127 -394 17 -131 26
-170 51 -221 106 -218 117 -855 20 -1164 -18 -57 -21 -92 -21 -284 0 -215 0
-219 -19 -202 -25 23 -82 132 -116 221 -28 76 -87 291 -106 393 -13 70 -29 92
-64 92 -40 0 -55 -25 -55 -93 0 -138 -47 -351 -104 -478 l-25 -54 0 177 c-1
97 -7 236 -15 310 -52 474 -52 1000 0 1288 46 262 145 420 261 420 23 0 53 -5
66 -11z m-2 -2223 c41 -84 118 -171 163 -186 27 -8 38 -21 54 -58 61 -143 93
-318 94 -507 1 -193 -31 -354 -149 -745 -114 -381 -133 -456 -133 -540 0 -92
15 -139 98 -308 34 -68 64 -139 68 -157 9 -48 -26 -117 -74 -147 -37 -23 -38
-23 -489 -26 l-453 -3 0 49 0 49 124 61 c69 34 161 86 205 116 l81 55 0 -28
c0 -25 44 -100 67 -114 8 -5 83 58 83 70 0 4 -10 17 -22 30 l-22 23 23 68 c35
105 45 209 32 316 -16 125 -28 182 -167 785 l-5 24 35 -27 c92 -70 203 -94
281 -62 19 8 57 37 85 65 l49 50 33 -31 c33 -30 67 -48 94 -48 20 0 20 108 -1
116 -8 3 -33 35 -55 70 -58 92 -82 89 -155 -19 -44 -67 -96 -107 -138 -107
-70 0 -175 84 -227 182 -28 51 -34 76 -38 141 -12 201 82 567 184 719 60 90
117 213 146 315 l22 82 36 -102 c20 -56 52 -133 71 -171z"/>
<path d="M3340 5097 c-55 -29 -103 -98 -130 -184 -11 -36 -29 -140 -40 -231
-24 -193 -26 -202 -57 -263 -46 -93 -78 -294 -89 -563 l-7 -168 -29 78 c-53
146 -159 498 -204 678 -56 227 -83 382 -91 519 l-6 107 -53 0 -54 0 0 -72 c0
-308 199 -1040 452 -1668 l82 -205 4 -232 c3 -222 2 -234 -19 -275 -75 -147
-119 -366 -119 -593 0 -229 34 -395 180 -880 97 -322 113 -393 99 -455 -5 -25
-44 -117 -86 -205 -70 -147 -77 -165 -77 -225 -1 -111 58 -204 159 -246 50
-21 1037 -21 1054 0 8 9 11 55 9 137 l-3 123 -150 76 c-231 115 -364 220 -400
314 -16 41 -16 52 -1 149 8 59 49 254 90 434 107 469 110 488 110 698 1 137
-4 200 -18 265 -26 124 -63 253 -102 356 l-34 92 0 210 0 210 55 219 c136 544
225 1071 255 1508 5 83 10 176 10 208 l0 57 -53 0 -53 0 -12 -202 c-18 -299
-61 -636 -117 -908 l-24 -115 5 85 c7 113 -11 457 -31 598 -44 311 -133 499
-267 566 -71 35 -175 37 -238 3z m189 -101 c69 -36 133 -146 171 -293 72 -281
86 -797 33 -1298 -8 -82 -18 -249 -22 -370 l-6 -220 -33 85 c-58 145 -92 310
-92 442 0 66 -17 98 -52 98 -42 0 -56 -18 -67 -87 -17 -96 -75 -315 -106 -398
-34 -89 -91 -198 -116 -221 -19 -17 -19 -13 -19 203 0 170 -3 230 -15 263
-104 296 -93 978 20 1197 18 34 29 82 40 163 40 308 57 372 110 419 29 25 45
31 81 31 25 0 58 -7 73 -14z m66 -2204 c24 -50 62 -118 84 -150 96 -137 191
-513 179 -709 -5 -89 -34 -156 -95 -224 -46 -50 -128 -99 -168 -99 -44 0 -95
39 -140 107 -73 108 -97 111 -155 19 -22 -35 -47 -67 -55 -70 -21 -8 -21 -116
-1 -116 28 0 63 19 94 49 l31 32 41 -45 c102 -111 239 -114 376 -10 l35 27 -5
-24 c-139 -605 -151 -660 -167 -787 -14 -109 -2 -227 33 -318 l21 -55 -21 -29
c-12 -16 -22 -32 -22 -34 0 -12 75 -74 83 -69 23 14 67 89 67 114 l0 28 83
-55 c45 -31 137 -83 205 -116 l122 -61 0 -49 0 -49 -452 3 c-505 3 -487 1
-538 74 -40 59 -34 101 39 249 139 286 139 283 -7 775 -159 533 -177 627 -169
873 6 190 24 288 77 424 26 68 36 83 60 91 83 29 174 167 241 364 l33 98 23
-83 c14 -45 44 -124 68 -175z"/>
</g>
</svg>
