<?xml version="1.0" standalone="no"?>
<!DOCTYPE svg PUBLIC "-//W3C//DTD SVG 20010904//EN"
 "http://www.w3.org/TR/2001/REC-SVG-20010904/DTD/svg10.dtd">
<svg version="1.0" xmlns="http://www.w3.org/2000/svg"
 width="512.000000pt" height="512.000000pt" viewBox="0 0 512.000000 512.000000"
 preserveAspectRatio="xMidYMid meet">
<metadata>
Created by potrace 1.16, written by Peter Selinger 2001-2019
</metadata>
<g transform="translate(0.000000,512.000000) scale(0.100000,-0.100000)"
fill="#fff" stroke="none">
<path d="M2590 5097 c-83 -30 -141 -67 -205 -131 -215 -215 -267 -619 -124
-963 l30 -72 -6 -168 c-11 -264 12 -640 55 -898 l20 -120 -36 -95 c-51 -136
-119 -379 -143 -506 -34 -184 -68 -530 -92 -949 -7 -115 -15 -216 -19 -224 -4
-7 -92 -48 -196 -90 l-188 -76 -62 -210 c-41 -138 -59 -216 -54 -230 4 -11 37
-37 73 -58 60 -34 66 -41 62 -65 -2 -15 -9 -66 -15 -114 -16 -130 -17 -129
133 -126 l122 3 31 50 c18 28 40 63 51 79 18 30 20 30 251 66 150 23 237 41
246 50 9 9 33 128 62 300 l47 285 102 205 c174 353 271 633 331 952 22 117 30
441 13 554 -15 106 -16 99 22 289 34 173 74 316 129 466 60 162 73 256 75 524
1 187 5 246 21 315 15 69 19 123 19 290 0 184 -2 213 -23 285 -61 211 -193
345 -384 390 -36 8 -111 15 -173 15 -89 0 -122 -5 -175 -23z m325 -102 c152
-40 250 -139 299 -305 40 -134 40 -371 0 -552 -13 -55 -17 -133 -19 -313 -2
-235 -8 -298 -41 -410 -14 -46 -21 -54 -86 -95 -151 -96 -268 -248 -284 -372
l-7 -48 56 0 55 0 7 38 c9 54 59 136 117 195 27 27 51 48 53 46 2 -2 -10 -56
-26 -119 -17 -63 -41 -178 -55 -255 -34 -193 -51 -259 -79 -316 -25 -49 -82
-113 -123 -139 l-23 -15 20 -48 c11 -26 24 -47 29 -47 20 0 102 61 132 99 18
23 38 41 43 41 11 0 1 -178 -19 -316 -45 -314 -185 -710 -377 -1070 l-54 -100
-47 -275 c-26 -150 -50 -277 -54 -280 -4 -3 -106 -21 -227 -39 -121 -18 -225
-37 -232 -42 -7 -6 -32 -43 -55 -84 -42 -71 -44 -74 -81 -74 l-39 0 6 38 c3
20 8 60 11 87 4 28 16 114 27 193 11 78 19 144 17 146 -2 2 -27 7 -55 11 l-51
6 -14 -96 c-13 -89 -15 -95 -32 -83 -16 12 -15 22 27 162 25 81 48 151 51 154
4 4 93 41 198 82 180 71 192 77 198 105 4 17 13 127 19 245 21 402 57 780 91
960 26 133 84 339 143 501 l45 126 -19 99 c-36 186 -51 366 -57 652 -3 155 -4
282 -1 282 2 0 26 -31 52 -70 l48 -70 44 31 c24 16 44 33 44 36 0 3 -46 70
-101 150 -151 214 -192 335 -193 558 0 105 4 145 23 210 53 189 177 335 324
380 58 19 201 18 272 0z"/>
</g>
</svg>
