<?xml version="1.0" standalone="no"?>
<!DOCTYPE svg PUBLIC "-//W3C//DTD SVG 20010904//EN"
 "http://www.w3.org/TR/2001/REC-SVG-20010904/DTD/svg10.dtd">
<svg version="1.0" xmlns="http://www.w3.org/2000/svg"
 width="512.000000pt" height="512.000000pt" viewBox="0 0 512.000000 512.000000"
 preserveAspectRatio="xMidYMid meet">

<g transform="translate(0.000000,512.000000) scale(0.100000,-0.100000)"
fill="#fff" stroke="none">
<path d="M2331 5086 c-6 -7 -20 -39 -31 -70 -25 -75 -76 -169 -106 -197 l-24
-22 0 126 0 127 -50 0 -50 0 0 -158 0 -158 -359 -162 c-197 -89 -387 -172
-422 -183 -235 -75 -470 -259 -554 -433 -20 -41 -47 -118 -60 -170 -27 -106
-50 -332 -42 -404 8 -73 -195 -1319 -234 -1435 -61 -184 -99 -443 -99 -682 0
-230 41 -661 111 -1158 l12 -85 41 5 c22 3 45 9 49 13 4 4 -6 108 -22 231 -81
597 -105 970 -81 1220 10 98 46 315 56 330 2 4 21 -2 41 -12 21 -10 56 -19 78
-19 46 0 141 25 150 40 5 8 -30 90 -39 90 -2 0 -20 -7 -39 -15 -48 -20 -101
-19 -118 1 -8 10 -13 38 -12 68 1 28 47 332 103 676 91 562 102 641 105 784 9
324 66 498 209 633 86 82 159 132 274 185 126 60 146 60 277 1 146 -65 241
-122 308 -183 60 -55 121 -166 277 -503 l82 -178 -12 -61 c-27 -139 -86 -266
-171 -368 -51 -62 -169 -147 -242 -175 l-45 -17 15 -44 c8 -25 21 -44 29 -44
24 0 146 65 211 113 111 83 220 239 268 386 l17 53 20 -43 c144 -321 251 -579
250 -601 -3 -44 -60 -206 -106 -303 -81 -170 -193 -330 -315 -449 l-60 -59 27
-38 c15 -21 30 -39 33 -39 19 0 215 221 272 306 70 105 153 265 183 351 10 29
21 53 24 53 3 0 14 -24 24 -52 31 -90 112 -244 182 -350 57 -86 254 -308 273
-308 3 0 18 18 33 39 l27 38 -65 64 c-175 172 -328 430 -398 674 l-25 87 114
261 c62 144 124 287 138 317 l24 54 18 -54 c46 -144 152 -298 262 -382 60 -47
192 -118 217 -118 8 0 21 19 29 44 l15 44 -43 17 c-66 25 -163 91 -221 151
-69 71 -126 168 -163 279 -53 161 -54 155 39 355 157 338 217 445 279 503 65
59 201 137 342 197 l97 40 55 -19 c143 -50 283 -138 383 -243 129 -134 181
-306 189 -617 3 -140 14 -221 105 -781 56 -344 102 -648 103 -676 1 -30 -4
-58 -12 -68 -17 -20 -70 -21 -118 -1 -19 8 -37 15 -39 15 -10 0 -44 -83 -37
-90 16 -16 105 -40 146 -40 24 0 60 9 80 19 43 22 39 27 60 -74 44 -208 56
-561 29 -835 -25 -247 -43 -409 -73 -629 -16 -123 -26 -228 -22 -231 13 -12
93 -19 93 -8 0 5 11 93 25 195 85 624 110 1012 84 1279 -13 141 -52 336 -89
445 -42 125 -233 1308 -231 1430 4 212 -37 436 -105 576 -64 134 -248 301
-417 378 -31 15 -91 39 -134 54 -43 15 -237 99 -430 186 l-353 159 0 158 0
158 -50 0 -50 0 0 -127 0 -126 -24 22 c-30 28 -69 100 -102 187 -14 38 -30 75
-36 82 -16 18 -441 17 -457 -2z m404 -133 c42 -114 126 -229 203 -276 21 -13
180 -88 355 -166 174 -79 317 -147 316 -150 0 -3 -54 -32 -119 -64 -152 -73
-259 -153 -311 -231 -66 -99 -250 -488 -510 -1078 -57 -131 -107 -238 -110
-238 -3 0 -55 111 -114 248 -292 666 -471 1033 -543 1113 -57 64 -186 150
-304 204 -48 22 -88 43 -88 46 0 3 143 70 318 149 174 79 336 156 358 171 63
43 123 116 164 201 20 42 40 86 43 97 5 20 11 21 165 21 l159 0 18 -47z"/>
<path d="M1005 3010 l-29 -30 39 -43 c22 -23 81 -85 131 -137 l92 -95 -97
-460 c-97 -454 -98 -462 -105 -640 -17 -440 -80 -1006 -159 -1437 l-24 -127
46 -10 c25 -5 48 -8 50 -5 8 8 52 260 86 499 55 381 88 732 100 1070 6 148 12
189 83 532 42 205 79 369 83 365 3 -4 25 -63 48 -132 49 -145 131 -351 163
-412 22 -42 23 -51 34 -668 l12 -625 -34 -91 c-65 -176 -143 -486 -131 -519 7
-16 88 -25 92 -10 2 5 15 66 30 135 14 69 49 192 76 274 47 142 56 160 165
328 124 190 123 187 66 220 l-29 18 -69 -103 -69 -102 -11 560 -11 560 -45
100 c-76 166 -192 495 -238 673 -9 36 -37 71 -152 193 -78 82 -147 149 -153
149 -6 0 -24 -14 -40 -30z"/>
<path d="M3923 2893 l-140 -148 -32 -108 c-71 -239 -162 -490 -238 -658 l-31
-66 -6 -504 c-4 -277 -9 -525 -12 -551 l-6 -48 -65 100 c-62 96 -67 100 -87
87 -11 -8 -30 -20 -42 -27 -21 -13 -18 -18 97 -195 112 -172 121 -190 168
-331 42 -129 60 -196 99 -384 7 -34 9 -35 47 -32 22 2 44 7 49 12 19 18 -63
347 -130 522 l-33 88 11 618 10 617 33 75 c55 123 95 226 151 389 29 85 56
148 59 140 2 -8 38 -174 79 -369 70 -335 74 -365 80 -525 13 -340 49 -718 106
-1110 31 -211 74 -452 81 -459 5 -6 78 10 86 18 3 3 -6 72 -20 153 -83 476
-138 978 -153 1393 l-7 185 -98 465 -98 465 87 90 c48 50 107 111 132 137 l44
48 -29 30 c-16 16 -34 30 -40 30 -6 0 -75 -66 -152 -147z"/>
<path d="M2117 985 c-43 -30 -45 -20 37 -149 29 -44 65 -100 80 -124 l27 -43
30 18 c56 33 56 33 -38 182 -48 77 -90 141 -93 141 -3 0 -22 -11 -43 -25z"/>
<path d="M2942 983 c-10 -16 -51 -79 -91 -141 -77 -121 -77 -123 -22 -155 l31
-18 37 58 c20 32 61 96 90 141 57 90 58 93 5 125 -30 17 -31 17 -50 -10z"/>
</g>
</svg>
