<?xml version="1.0" standalone="no"?>
<!DOCTYPE svg PUBLIC "-//W3C//DTD SVG 20010904//EN"
 "http://www.w3.org/TR/2001/REC-SVG-20010904/DTD/svg10.dtd">
<svg version="1.0" xmlns="http://www.w3.org/2000/svg"
 width="512px" height="512px" viewBox="0 0 512 512"
 preserveAspectRatio="xMidYMid meet">

<g transform="translate(0.000000,512.000000) scale(0.100000,-0.100000)"
fill="#fff" stroke="none">
<path d="M548 4918 c-9 -7 -93 -149 -187 -315 -117 -206 -171 -311 -171 -332
0 -47 33 -71 97 -71 l53 0 0 -625 c0 -453 3 -631 12 -650 18 -40 63 -47 266
-43 179 3 184 4 203 27 18 22 19 48 19 657 l0 634 55 0 c46 0 60 4 80 25 14
13 25 34 25 45 0 21 -326 606 -358 643 -18 20 -71 23 -94 5z m155 -394 c53
-95 97 -175 97 -178 0 -3 -15 -6 -34 -6 -69 0 -66 28 -66 -677 l0 -633 -105 0
-105 0 -2 634 c-3 607 -4 635 -22 655 -11 12 -26 21 -35 21 -49 1 -45 15 49
181 105 184 110 193 120 182 3 -4 50 -85 103 -179z"/>
<path d="M1865 4913 c-53 -27 -104 -84 -120 -134 l-16 -47 -46 15 c-91 31
-197 1 -267 -77 -42 -46 -55 -75 -65 -140 -6 -41 -9 -45 -44 -53 -56 -13 -129
-84 -162 -159 -37 -82 -46 -223 -20 -314 30 -106 105 -193 187 -214 35 -10 38
-13 38 -48 1 -151 191 -272 343 -218 36 13 37 13 43 -13 11 -47 52 -107 91
-133 133 -92 309 -28 352 127 6 22 11 118 11 218 l0 177 54 0 53 0 7 -58 c4
-31 16 -74 29 -94 12 -20 80 -91 150 -159 70 -67 137 -139 148 -160 12 -25 19
-58 19 -96 0 -52 -9 -78 -98 -268 -202 -431 -250 -608 -219 -812 l8 -53 -33 8
c-18 4 -78 7 -133 7 -159 0 -271 -48 -434 -187 -44 -38 -82 -68 -85 -68 -3 0
-39 25 -82 55 -153 111 -359 197 -533 225 -261 42 -544 -105 -661 -343 -75
-154 -75 -154 -75 -677 0 -418 2 -472 18 -530 67 -239 240 -413 472 -476 81
-22 403 -31 515 -15 165 25 314 76 444 153 l69 40 121 -40 c240 -81 414 -115
586 -116 255 0 433 79 720 323 54 45 99 75 125 82 160 43 258 151 281 309 4
31 24 71 64 130 127 189 201 341 247 505 34 123 42 332 19 496 -34 242 -101
471 -274 934 -150 402 -147 373 -49 610 41 99 78 201 81 228 l7 47 49 0 48 0
4 -197 c3 -178 6 -202 25 -238 43 -82 117 -128 204 -128 103 0 191 65 220 163
l11 37 37 -13 c107 -39 244 8 303 104 12 19 29 62 37 95 15 54 19 60 52 71 54
19 93 50 128 103 44 67 62 133 62 238 0 106 -18 175 -63 236 -40 55 -69 80
-122 100 -38 16 -42 21 -57 78 -19 73 -51 122 -101 157 -75 53 -147 65 -231
40 l-47 -14 -6 26 c-12 50 -53 108 -96 137 -50 34 -142 45 -203 25 -48 -16
-101 -63 -128 -114 -20 -38 -22 -58 -25 -283 l-4 -243 -49 0 -49 0 0 50 c0 27
-5 72 -11 101 -28 129 -188 199 -304 131 -30 -18 -31 -18 -70 2 -53 27 -136
28 -191 0 l-41 -20 -39 20 c-52 27 -136 27 -188 -1 -39 -20 -40 -20 -72 -1
-52 31 -121 34 -181 8 -28 -12 -59 -30 -69 -41 -10 -12 -30 -19 -51 -19 -67 0
-125 -22 -169 -64 -35 -34 -44 -51 -55 -103 l-13 -63 -52 0 -53 0 -3 243 c-3
213 -5 246 -22 277 -26 49 -64 88 -108 111 -47 24 -150 25 -193 2z m150 -148
l25 -24 0 -606 0 -606 -25 -24 c-33 -34 -83 -34 -116 1 l-24 26 0 605 0 605
28 24 c37 31 81 31 112 -1z m2122 1 l28 -24 3 -600 2 -600 -26 -31 c-33 -40
-83 -43 -119 -6 l-25 24 0 604 c0 635 -1 620 45 645 32 18 62 14 92 -12z
m-2464 -168 c10 -5 27 -24 37 -41 19 -30 20 -53 20 -422 0 -374 -1 -391 -20
-423 -28 -45 -82 -68 -130 -53 -20 6 -47 22 -61 37 l-24 26 -3 402 -3 402 24
35 c35 52 100 68 160 37z m2801 8 c18 -7 42 -26 54 -41 22 -27 22 -32 22 -431
l0 -403 -31 -35 c-56 -64 -145 -56 -189 16 -19 31 -20 51 -20 418 0 432 1 438
70 472 42 22 51 22 94 4z m-882 -189 c4 -7 8 -138 8 -292 l0 -280 -70 -167
c-81 -193 -94 -243 -85 -318 4 -30 50 -169 102 -310 221 -590 291 -846 309
-1123 16 -246 -56 -465 -247 -751 -77 -116 -88 -138 -94 -191 -15 -124 -69
-179 -210 -214 -26 -7 -70 -36 -130 -87 -272 -231 -394 -291 -607 -301 -180
-9 -314 17 -599 114 l-166 56 -96 -61 c-106 -66 -219 -111 -349 -139 -103 -22
-409 -25 -503 -4 -196 43 -354 199 -394 389 -16 76 -15 275 2 268 62 -25 213
-69 284 -81 270 -47 518 -20 791 87 118 46 142 64 142 110 0 68 -56 86 -145
45 -160 -75 -361 -119 -540 -119 -177 1 -280 20 -457 84 l-88 32 0 246 c0 273
9 332 61 431 44 83 141 171 236 217 77 37 79 37 203 37 110 -1 135 -4 210 -29
145 -48 285 -126 419 -235 87 -70 99 -69 191 25 219 222 386 267 631 169 97
-39 129 -43 151 -17 31 36 30 53 -11 121 -57 94 -71 141 -71 236 0 152 43 278
228 675 106 226 117 275 87 385 -23 85 -56 129 -207 275 -121 115 -128 124
-128 161 l0 39 90 0 c136 0 130 -12 130 272 0 201 2 234 17 250 19 21 75 24
91 5 6 -7 12 -94 14 -215 3 -200 3 -204 27 -223 30 -24 62 -24 92 0 24 19 24
23 29 227 l5 209 28 9 c17 6 37 6 55 0 l27 -9 5 -240 c3 -132 9 -247 13 -257
14 -27 59 -41 90 -27 14 6 30 19 34 28 4 9 10 124 13 256 l5 240 28 9 c17 6
37 6 55 0 l27 -9 6 -210 c3 -116 6 -211 7 -212 1 -1 9 -9 18 -17 23 -23 77
-20 100 5 17 19 20 43 24 227 5 206 5 206 29 218 26 13 69 3 83 -19z m-1062
-97 l0 -40 -40 0 c-37 0 -40 2 -40 28 0 36 16 52 52 52 26 0 28 -3 28 -40z
m2249 -95 c26 -103 5 -218 -49 -270 l-30 -29 0 210 1 209 33 -38 c19 -21 39
-58 45 -82z m-3429 -95 c0 -110 -4 -200 -8 -200 -13 0 -47 41 -68 80 -26 49
-26 200 0 250 24 45 46 70 63 70 10 0 13 -39 13 -200z m1180 -45 l0 -45 -170
0 -170 0 0 45 0 45 170 0 170 0 0 -45z m1320 0 l0 -45 -50 0 -50 0 0 45 0 45
50 0 50 0 0 -45z"/>
<path d="M3279 2709 c-26 -26 -23 -55 15 -219 72 -304 72 -534 1 -701 -37 -86
-38 -135 -4 -161 60 -45 122 26 171 197 20 71 23 101 23 270 -1 140 -5 214
-18 280 -36 180 -69 305 -89 330 -24 31 -70 33 -99 4z"/>
<path d="M4481 3078 c-26 -26 -361 -626 -361 -647 0 -12 11 -33 25 -46 20 -21
34 -25 80 -25 l55 0 0 -633 c0 -556 2 -635 16 -655 15 -22 19 -22 229 -22
l214 0 20 26 c21 26 21 35 21 655 l0 629 49 0 c62 0 101 28 101 72 0 35 -340
642 -366 652 -26 10 -69 7 -83 -6z m149 -378 c52 -94 97 -175 98 -180 2 -6 -6
-10 -18 -10 -12 0 -35 -13 -51 -29 l-29 -29 0 -631 0 -631 -105 0 -105 0 0
634 c0 705 4 665 -67 683 l-32 8 101 178 c55 97 103 177 107 177 3 0 49 -77
101 -170z"/>
<path d="M365 2765 c-24 -23 -25 -28 -25 -169 0 -80 4 -156 9 -169 16 -42 52
-49 259 -45 249 4 232 -11 232 204 l0 163 -26 20 c-25 20 -40 21 -226 21 -198
0 -199 0 -223 -25z m335 -180 l0 -55 -105 0 -105 0 0 55 0 55 105 0 105 0 0
-55z"/>
<path d="M3829 908 c-30 -10 -49 -45 -49 -92 0 -41 -26 -120 -55 -166 -46 -73
-147 -139 -238 -155 -39 -8 -77 -44 -77 -75 0 -30 39 -70 68 -70 83 0 211 59
288 132 92 87 144 192 158 319 5 47 3 61 -14 82 -23 30 -46 37 -81 25z"/>
<path d="M4306 859 l-26 -20 0 -164 0 -164 27 -21 c26 -20 36 -21 230 -18 178
3 204 5 220 21 15 15 18 40 21 177 3 159 3 160 -22 185 l-25 25 -199 0 c-186
0 -201 -1 -226 -21z m324 -184 l0 -55 -105 0 -105 0 0 55 0 55 105 0 105 0 0
-55z"/>
</g>
</svg>
