<?xml version="1.0" standalone="no"?>
<!DOCTYPE svg PUBLIC "-//W3C//DTD SVG 20010904//EN"
 "http://www.w3.org/TR/2001/REC-SVG-20010904/DTD/svg10.dtd">
<svg version="1.0" xmlns="http://www.w3.org/2000/svg"
 width="512.000000pt" height="512.000000pt" viewBox="0 0 512.000000 512.000000"
 preserveAspectRatio="xMidYMid meet">

<g transform="translate(0.000000,512.000000) scale(0.100000,-0.100000)"
fill="#fff" stroke="none">
<path d="M1693 5105 c-36 -25 -229 -249 -317 -368 -502 -678 -946 -1649 -1180
-2584 -104 -414 -167 -837 -182 -1233 l-7 -165 58 -54 c153 -140 341 -234 520
-261 63 -10 87 -19 138 -55 376 -261 964 -400 1617 -381 522 14 955 98 1232
237 43 22 82 39 87 39 6 0 103 -61 217 -135 113 -75 207 -135 208 -133 2 2 12
17 24 35 12 17 22 36 22 41 0 8 -386 268 -445 300 -17 9 -39 1 -128 -43 -312
-155 -805 -245 -1337 -245 -354 0 -716 56 -1004 157 -130 45 -385 171 -456
225 -50 37 -64 43 -149 55 -51 8 -123 25 -158 39 -82 30 -204 103 -284 168
l-62 49 7 146 c37 810 258 1668 658 2551 258 570 612 1142 889 1434 l91 96
601 0 602 -1 162 -142 c89 -78 162 -147 162 -153 1 -10 -122 -290 -131 -300
-3 -3 -38 95 -77 218 -40 123 -75 230 -79 239 -6 15 -11 15 -53 0 l-46 -16 89
-274 c48 -151 86 -276 84 -278 -5 -5 -178 -35 -180 -31 -2 2 -35 129 -76 283
-40 154 -74 283 -76 286 -5 9 -94 -13 -94 -22 0 -5 32 -128 70 -275 39 -146
70 -272 70 -279 0 -8 -24 -17 -63 -24 -122 -21 -105 -41 -182 212 -37 122 -76
250 -87 285 -10 34 -21 62 -25 62 -24 0 -83 -26 -83 -37 0 -7 36 -133 81 -279
45 -146 77 -269 73 -274 -5 -4 -28 -10 -51 -14 l-42 -6 -79 127 c-43 71 -109
179 -146 241 -37 61 -70 112 -73 112 -4 0 -63 -33 -81 -46 -2 -1 22 -44 54
-95 31 -52 58 -97 60 -100 3 -6 -140 14 -193 26 -30 7 -54 -19 -94 -97 -70
-139 -117 -301 -146 -508 -16 -110 -18 -192 -15 -684 3 -561 -4 -741 -34 -951
-28 -194 -89 -426 -149 -562 -73 -164 -217 -298 -359 -334 l-46 -11 0 -49 c0
-33 4 -49 13 -49 31 0 136 33 176 56 l44 24 -6 -41 c-14 -105 30 -225 116
-316 117 -124 310 -204 597 -248 144 -22 498 -31 626 -16 401 47 653 212 740
485 53 169 40 328 -40 489 l-44 87 53 90 c178 301 404 464 740 536 110 24 382
24 520 0 119 -20 276 -60 363 -93 l63 -23 18 42 c10 24 17 46 14 50 -7 13
-246 86 -348 107 -348 70 -647 48 -911 -66 -217 -94 -422 -282 -545 -500 -18
-32 -34 -60 -35 -62 -2 -2 -34 25 -71 59 -102 96 -227 185 -338 240 -119 60
-189 79 -312 87 -248 16 -507 -88 -770 -309 -51 -43 -93 -77 -93 -75 0 1 13
55 30 120 75 296 94 565 85 1182 -8 584 4 751 71 990 25 88 91 245 103 245 3
0 58 -9 121 -20 63 -11 118 -20 121 -20 3 0 37 -49 74 -109 37 -60 73 -112 80
-115 7 -2 190 24 407 60 301 49 397 69 409 82 23 25 219 477 219 505 0 17 -48
65 -201 200 l-201 177 -637 0 c-550 0 -639 -2 -658 -15z m965 -3015 c153 -42
323 -153 487 -315 114 -112 155 -181 180 -300 19 -89 19 -153 0 -233 -56 -236
-253 -388 -580 -448 -133 -24 -474 -24 -655 0 -343 46 -561 150 -636 302 -24
49 -26 63 -22 142 5 106 25 155 122 294 145 208 413 428 630 517 155 63 337
79 474 41z"/>
<path d="M3661 1341 c-12 -22 -21 -42 -21 -44 0 -2 26 -20 58 -40 82 -51 236
-169 353 -273 259 -228 517 -567 648 -855 l45 -97 43 16 c24 9 43 23 43 30 0
8 -28 71 -63 141 -212 423 -551 805 -969 1092 -115 79 -113 78 -137 30z"/>
</g>
</svg>
