<?xml version="1.0" standalone="no"?>
<!DOCTYPE svg PUBLIC "-//W3C//DTD SVG 20010904//EN"
 "http://www.w3.org/TR/2001/REC-SVG-20010904/DTD/svg10.dtd">
<svg version="1.0" xmlns="http://www.w3.org/2000/svg"
 width="512.000000pt" height="512.000000pt" viewBox="0 0 512.000000 512.000000"
 preserveAspectRatio="xMidYMid meet">
<metadata>
Created by potrace 1.16, written by Peter Selinger 2001-2019
</metadata>
<g transform="translate(0.000000,512.000000) scale(0.100000,-0.100000)"
fill="#fff" stroke="none">
<path d="M1480 4634 c-627 -77 -1115 -558 -1232 -1214 -27 -153 -29 -388 -4
-515 23 -120 69 -260 122 -373 l43 -92 -175 0 -176 0 -29 -29 c-23 -23 -29
-38 -29 -71 0 -101 23 -110 302 -110 l223 0 45 -67 c300 -444 879 -974 1565
-1435 268 -179 386 -248 430 -248 44 0 163 69 430 248 433 291 763 559 1086
881 211 211 298 311 434 500 l87 121 220 0 c274 0 298 9 298 110 0 33 -6 48
-29 71 l-29 29 -172 0 c-134 0 -171 3 -167 13 147 337 191 550 168 808 -43
463 -247 851 -579 1102 -163 122 -340 203 -543 249 -137 30 -407 33 -539 5
-232 -50 -441 -153 -608 -302 l-62 -57 -55 50 c-167 153 -377 259 -610 307
-77 16 -339 28 -415 19z m422 -238 c192 -49 347 -139 513 -297 97 -92 107 -99
145 -99 38 0 48 7 145 99 165 157 318 246 513 298 87 24 115 26 272 26 156 0
185 -2 271 -25 438 -118 762 -454 879 -913 87 -340 49 -634 -123 -960 l-42
-80 -395 -2 -395 -3 -244 506 c-157 324 -254 513 -269 525 -34 27 -94 25 -126
-3 -17 -15 -146 -273 -354 -709 l-328 -687 -240 460 c-131 252 -249 468 -261
479 -32 31 -92 36 -125 9 -15 -12 -116 -147 -223 -301 l-196 -279 -334 0 -334
0 -45 83 c-88 162 -147 343 -166 505 -15 129 0 300 40 457 127 497 509 859
986 935 106 16 327 5 436 -24z m1423 -1697 c175 -361 214 -435 240 -450 28
-18 58 -19 403 -19 l374 0 -32 -42 c-273 -373 -770 -824 -1350 -1225 -150
-104 -359 -240 -385 -249 -17 -7 -165 84 -390 239 -423 291 -761 571 -1056
874 -126 129 -339 378 -339 396 0 4 142 7 315 9 l315 3 29 30 c16 17 95 125
176 240 80 116 150 211 154 213 4 1 116 -208 250 -465 146 -281 255 -479 272
-495 36 -34 94 -38 130 -9 15 12 141 264 349 700 179 375 328 681 331 681 3 0
99 -194 214 -431z"/>
</g>
</svg>
