<?xml version="1.0" standalone="no"?>
<!DOCTYPE svg PUBLIC "-//W3C//DTD SVG 20010904//EN"
 "http://www.w3.org/TR/2001/REC-SVG-20010904/DTD/svg10.dtd">
<svg version="1.0" xmlns="http://www.w3.org/2000/svg"
 width="512.000000pt" height="512.000000pt" viewBox="0 0 512.000000 512.000000"
 preserveAspectRatio="xMidYMid meet">

<g transform="translate(0.000000,512.000000) scale(0.100000,-0.100000)"
fill="#fff" stroke="none">
<path d="M800 4630 l0 -440 -69 -207 c-182 -549 -301 -1234 -301 -1741 0 -87
-6 -136 -24 -210 -109 -429 -185 -1081 -202 -1730 l-7 -252 50 0 50 0 7 258
c18 647 92 1278 202 1714 19 75 24 123 24 215 0 310 59 795 142 1162 59 262
171 638 219 732 10 20 98 145 195 278 97 133 175 243 173 245 -2 1 -20 15 -40
30 l-37 27 -138 -190 -139 -189 -3 369 -2 369 -50 0 -50 0 0 -440z"/>
<path d="M4220 4698 l0 -371 -77 105 c-43 58 -106 145 -141 193 l-63 86 -37
-27 c-20 -15 -38 -29 -40 -30 -2 -1 75 -110 171 -241 96 -132 184 -257 195
-279 49 -96 161 -469 220 -735 83 -367 142 -852 142 -1162 0 -92 5 -140 24
-215 110 -437 184 -1070 202 -1729 l7 -243 50 0 50 0 -7 253 c-17 646 -88
1251 -201 1732 -19 79 -25 139 -29 290 -15 540 -124 1142 -302 1672 l-64 193
0 440 0 440 -50 0 -50 0 0 -372z"/>
<path d="M1870 4585 c-41 -43 -52 -26 179 -265 l180 -185 35 34 36 35 -68 70
c-37 39 -126 133 -198 208 l-131 137 -33 -34z"/>
<path d="M3018 4412 l-197 -207 35 -35 35 -35 150 155 c82 85 170 179 196 208
l46 53 -34 34 -34 35 -197 -208z"/>
<path d="M1383 4114 c-190 -241 -329 -590 -379 -949 -20 -150 -15 -512 10
-645 53 -282 145 -482 285 -614 l62 -59 -68 7 c-37 4 -96 13 -131 20 -63 14
-63 14 -73 -11 -25 -67 -24 -70 28 -82 164 -37 443 -46 613 -17 180 29 392
104 530 186 36 21 66 37 68 35 7 -7 -19 -443 -34 -580 -32 -289 -78 -512 -183
-888 -64 -227 -91 -352 -91 -423 l0 -44 50 0 50 0 0 40 c0 61 34 220 83 390
149 510 202 846 224 1400 l7 185 63 53 63 52 64 -52 63 -53 7 -165 c23 -553
71 -878 197 -1320 77 -273 109 -411 109 -477 l0 -53 50 0 50 0 0 49 c0 72 -24
188 -86 408 -144 515 -192 803 -213 1273 -5 113 -9 205 -8 206 1 1 39 -20 83
-45 139 -80 323 -144 507 -177 164 -29 454 -21 620 17 52 12 53 15 28 82 -10
25 -10 25 -73 12 -35 -7 -94 -16 -131 -20 l-68 -7 61 58 c206 196 310 524 310
972 0 269 -27 446 -106 681 -70 212 -204 465 -298 565 -25 26 -30 28 -82 21
-279 -35 -578 -229 -774 -503 -121 -169 -240 -450 -287 -674 -9 -49 -20 -88
-23 -88 -3 0 -15 48 -28 107 -84 387 -272 715 -527 920 -153 123 -381 226
-531 240 l-60 6 -31 -39z m222 -101 c333 -105 598 -382 750 -788 90 -240 154
-611 155 -902 l0 -61 -77 -64 c-204 -169 -417 -271 -673 -323 -112 -23 -190
-16 -272 22 -186 87 -311 299 -374 634 -25 131 -30 475 -10 622 45 319 173
652 333 865 28 38 30 38 168 -5z m2108 -39 c63 -89 177 -323 215 -440 40 -119
78 -295 93 -418 15 -130 6 -472 -15 -589 -62 -330 -188 -543 -371 -629 -84
-39 -155 -45 -270 -24 -254 48 -500 169 -706 347 l-53 47 12 188 c13 216 32
351 69 509 134 570 451 951 886 1065 40 10 77 18 82 16 6 -1 32 -34 58 -72z"/>
</g>
</svg>
