<?xml version="1.0" standalone="no"?>
<!DOCTYPE svg PUBLIC "-//W3C//DTD SVG 20010904//EN"
 "http://www.w3.org/TR/2001/REC-SVG-20010904/DTD/svg10.dtd">
<svg version="1.0" xmlns="http://www.w3.org/2000/svg"
 width="512.000000pt" height="512.000000pt" viewBox="0 0 512.000000 512.000000"
 preserveAspectRatio="xMidYMid meet">

<g transform="translate(0.000000,512.000000) scale(0.100000,-0.100000)"
fill="#fff" stroke="none">
<path d="M1611 4976 c-191 -391 -183 -713 22 -918 l60 -59 13 -102 c26 -201
38 -386 38 -612 1 -218 0 -235 -26 -336 -15 -59 -63 -208 -107 -333 -96 -273
-134 -403 -160 -556 -72 -422 -48 -776 103 -1490 49 -229 120 -527 129 -536
10 -10 87 17 87 30 0 8 -20 96 -44 197 -139 573 -216 1059 -216 1356 0 175 23
388 40 381 25 -9 950 -854 950 -867 0 -9 -48 -253 -107 -543 -58 -291 -104
-531 -101 -534 11 -10 83 -23 89 -16 3 4 44 195 90 424 46 230 86 418 89 418
3 0 43 -188 89 -418 46 -229 87 -420 90 -424 6 -7 78 6 89 16 3 3 -43 243
-101 534 -59 290 -107 534 -107 543 0 14 925 857 950 867 11 4 17 -40 31 -226
19 -242 -4 -495 -82 -922 -43 -234 -153 -727 -174 -781 -5 -13 4 -19 41 -28
25 -7 49 -10 52 -7 10 11 93 368 147 631 103 511 138 839 117 1112 -20 267
-57 442 -144 693 -186 540 -194 576 -184 895 5 194 19 379 42 570 7 56 11 63
76 132 170 180 199 414 90 734 -33 98 -121 279 -135 279 -11 0 -77 -39 -77
-46 0 -3 16 -36 35 -74 116 -230 163 -447 131 -599 -20 -97 -48 -151 -110
-218 -48 -51 -57 -56 -161 -87 -60 -19 -110 -38 -109 -42 2 -37 19 -84 29 -84
7 0 41 9 74 19 l61 19 -6 -51 c-4 -29 -7 -53 -8 -54 -1 -1 -87 -10 -191 -19
-265 -24 -859 -24 -1115 0 -101 9 -185 18 -187 19 -1 1 -5 26 -9 54 l-6 52 62
-20 c34 -10 68 -19 75 -19 14 0 38 81 27 91 -4 3 -51 18 -105 34 -113 32 -155
61 -209 141 -114 168 -97 421 48 723 30 63 53 115 52 116 -2 1 -17 11 -35 23
-17 12 -36 22 -41 22 -6 0 -33 -47 -61 -104z m444 -1236 c66 -5 132 -10 147
-10 l27 0 -34 -73 c-38 -78 -80 -230 -87 -315 l-5 -53 51 3 c50 3 51 3 54 38
6 83 45 222 85 301 l42 84 225 0 225 0 42 -84 c40 -79 79 -218 85 -301 3 -35
4 -35 54 -38 l51 -3 -5 53 c-7 85 -49 237 -86 314 l-34 72 101 7 c56 3 146 11
201 16 54 6 99 9 101 7 1 -2 -2 -43 -7 -93 -5 -49 -10 -207 -11 -350 -2 -306
2 -335 95 -610 33 -99 63 -185 65 -192 9 -22 -232 -78 -472 -110 -185 -24
-630 -24 -810 1 -197 27 -475 86 -475 101 0 2 29 91 64 197 76 227 96 314 103
463 5 105 -11 492 -24 564 l-6 33 59 -6 c33 -4 113 -11 179 -16z m-273 -1370
c278 -67 445 -85 783 -85 333 1 517 21 783 87 68 16 125 28 127 26 8 -8 75
-263 73 -275 -4 -14 -981 -893 -990 -890 -4 1 -226 200 -495 441 -450 405
-488 442 -487 470 1 40 64 256 75 256 4 0 63 -13 131 -30z"/>
<path d="M2510 2620 l0 -100 50 0 50 0 0 100 0 100 -50 0 -50 0 0 -100z"/>
</g>
</svg>
